<?xml version="1.0" encoding="UTF-8" standalone="no"?>
<!-- Created with Inkscape (http://www.inkscape.org/) -->

<svg
   width="20.858152mm"
   height="7.704556mm"
   viewBox="0 0 20.858153 7.7045556"
   version="1.1"
   id="svg5"
   inkscape:version="1.2.1 (9c6d41e, 2022-07-14)"
   sodipodi:docname="rsdevelopment-favicon.svg"
   xmlns:inkscape="http://www.inkscape.org/namespaces/inkscape"
   xmlns:sodipodi="http://sodipodi.sourceforge.net/DTD/sodipodi-0.dtd"
   xmlns="http://www.w3.org/2000/svg"
   xmlns:svg="http://www.w3.org/2000/svg">
  <sodipodi:namedview
     id="namedview7"
     pagecolor="#ffffff"
     bordercolor="#000000"
     borderopacity="0.25"
     inkscape:showpageshadow="2"
     inkscape:pageopacity="0.0"
     inkscape:pagecheckerboard="0"
     inkscape:deskcolor="#d1d1d1"
     inkscape:document-units="mm"
     showgrid="false"
     inkscape:zoom="4.3111938"
     inkscape:cx="-9.0462183"
     inkscape:cy="14.26519"
     inkscape:window-width="1920"
     inkscape:window-height="1027"
     inkscape:window-x="1440"
     inkscape:window-y="25"
     inkscape:window-maximized="1"
     inkscape:current-layer="layer1" />
  <defs
     id="defs2" />
  <g
     inkscape:label="Layer 1"
     inkscape:groupmode="layer"
     id="layer1"
     transform="translate(-22.356112,-34.543716)">
    <path
       d="m 29.315782,42.242922 -1.3808,-2.717997 h 2.323989 l 1.145223,2.236462 -0.219386,0.481535 z m -6.95967,0 3.505263,-7.693857 h 7.070336 q 0.49185,0 0.787825,0.214016 0.313147,0.203314 0.398191,0.556439 0.08505,0.353127 -0.105085,0.770457 l -0.926288,2.033147 q -0.190132,0.41733 -0.596939,0.770456 -0.40193,0.342424 -0.905209,0.55644 -0.486109,0.203314 -0.977958,0.203314 l -5.304554,0.0107 -1.174921,2.578887 z m 3.731135,-4.1412 h 5.139826 q 0.03689,0 0.05405,-0.0107 0.03435,-0.0214 0.04409,-0.0428 l 0.862917,-1.894037 q 0.01458,-0.0321 -0.005,-0.0428 -0.0025,-0.0214 -0.03943,-0.0214 h -5.139826 q -0.03689,0 -0.07123,0.0214 -0.01715,0.0107 -0.03176,0.0428 l -0.862907,1.894037 q -0.0098,0.0214 -0.0072,0.0428 0.01972,0.0107 0.05661,0.0107 z"
       style="font-style:normal;font-weight:800;font-size:11.4708px;font-family:Orbitron;-inkscape-font-specification:'Orbitron Ultra-Bold';fill:#16213e;fill-opacity:1;stroke-width:0.614502"
       id="path9426"
       inkscape:export-filename="rsdevelopment-logo.svg"
       inkscape:export-xdpi="719.47998"
       inkscape:export-ydpi="719.47998" />
    <path
       d="m 33.788389,42.24827 q -0.479554,0 -0.811329,-0.203314 -0.32788,-0.214016 -0.436877,-0.556441 -0.105105,-0.353124 0.05069,-0.781156 l 0.237577,-0.652748 h 1.770661 l -0.210317,0.577842 q -0.01168,0.0321 -0.0072,0.0535 0.0207,0.0107 0.04529,0.0107 h 5.152124 q 0.02459,0 0.05307,-0.0107 0.03238,-0.0214 0.04407,-0.0535 l 0.510213,-1.401802 q 0.0078,-0.0214 -0.01291,-0.0321 -0.0168,-0.0214 -0.04139,-0.0214 H 34.90616 q -0.479554,0 -0.811329,-0.203314 -0.32788,-0.214016 -0.432982,-0.567141 -0.105106,-0.353126 0.04679,-0.770456 l 0.56474,-1.551612 q 0.15579,-0.428031 0.514051,-0.770456 0.362156,-0.353126 0.841932,-0.55644 0.483671,-0.214016 0.963225,-0.214016 h 5.32427 q 0.479553,0 0.795138,0.214016 0.331774,0.203314 0.449172,0.55644 0.121292,0.342425 -0.03449,0.770456 l -0.237581,0.652748 h -1.795245 l 0.210316,-0.577842 q 0.01168,-0.0321 -0.009,-0.0428 -0.0168,-0.0214 -0.04139,-0.0214 h -5.152106 q -0.02459,0 -0.05697,0.0214 -0.01619,0.0107 -0.02787,0.0428 l -0.510214,1.401802 q -0.0078,0.0214 -0.0033,0.0428 0.0207,0.0107 0.04529,0.0107 H 40.7991 q 0.479553,0 0.795138,0.214017 0.331775,0.203313 0.449173,0.556438 0.117397,0.353127 -0.0345,0.770457 l -0.564741,1.551613 q -0.15579,0.428031 -0.530241,0.781156 -0.370558,0.342425 -0.854229,0.556441 -0.46748,0.203314 -0.947033,0.203314 z"
       style="font-style:normal;font-weight:800;font-size:11.4708px;font-family:Orbitron;-inkscape-font-specification:'Orbitron Ultra-Bold';fill:#16213e;fill-opacity:1;stroke-width:0.614502"
       id="path9428" />
  </g>
</svg>
